Coordinates
version=1
nRows=11
nColumns=40
inDegrees=yes

Units are S.I. units (second, meters, Newtons, ...)
If the header above contains a line with 'inDegrees', this indicates whether rotational values are in degrees (yes) or radians (no).

endheader
time	pelvis_tilt	pelvis_list	pelvis_rotation	pelvis_tx	pelvis_ty	pelvis_tz	hip_flexion_r	hip_adduction_r	hip_rotation_r	knee_angle_r	knee_angle_r_beta	ankle_angle_r	subtalar_angle_r	mtp_angle_r	hip_flexion_l	hip_adduction_l	hip_rotation_l	knee_angle_l	knee_angle_l_beta	ankle_angle_l	subtalar_angle_l	mtp_angle_l	lumbar_extension	lumbar_bending	lumbar_rotation	arm_flex_r	arm_add_r	arm_rot_r	elbow_flex_r	pro_sup_r	wrist_flex_r	wrist_dev_r	arm_flex_l	arm_add_l	arm_rot_l	elbow_flex_l	pro_sup_l	wrist_flex_l	wrist_dev_l
      7.50000000	     27.17141080	      2.20903046	   -174.08716496	      0.37994505	      0.82163168	     -0.59053113	     55.16022710	    -16.03355381	    -13.22767065	     26.85943729	      0.46878562	     -1.10229575	      0.00000000	      0.00000000	     56.83632378	     -9.24269997	     -2.73785427	     24.05394066	      0.41982046	     -3.75410853	      0.00000000	      0.00000000	    -47.82184858	      1.42990375	      1.66414114	     52.48164965	    -21.99523240	     55.08602041	     25.20366700	     63.89491537	      0.00000000	      0.00000000	     58.79583557	     -3.93943152	     19.71261951	     14.43323277	     32.01751121	      0.00000000	      0.00000000
      7.50500000	     27.06446990	      2.25838586	   -174.13303376	      0.37984866	      0.82208387	     -0.59084855	     54.89810409	    -15.85770441	    -13.11310983	     26.55763856	      0.46351823	     -1.25190678	      0.00000000	      0.00000000	     56.65668321	     -9.30003123	     -2.53501004	     23.91068866	      0.41732024	     -3.91505580	      0.00000000	      0.00000000	    -47.62096538	      1.41732645	      1.69887967	     52.33773684	    -21.86695302	     55.21866572	     24.92341960	     63.98894318	      0.00000000	      0.00000000	     58.67525360	     -3.94304107	     19.87296396	     14.25129622	     32.07722651	      0.00000000	      0.00000000
      7.51000000	     26.91235838	      2.34832359	   -174.14412945	      0.37959391	      0.82255048	     -0.59099722	     54.63287802	    -15.75991326	    -13.25991967	     26.44357571	      0.46152746	     -1.30358967	      0.00000000	      0.00000000	     56.48569375	     -9.36938195	     -2.37858806	     23.87475678	      0.41669311	     -3.94540925	      0.00000000	      0.00000000	    -47.45690008	      1.47131233	      1.74197904	     52.05727914	    -21.84045177	     55.10511618	     24.97416147	     63.86713937	      0.00000000	      0.00000000	     58.41091374	     -4.05674030	     20.05398401	     14.30001955	     32.28185965	      0.00000000	      0.00000000
      7.51500000	     26.78745886	      2.44542265	   -174.18814605	      0.37933956	      0.82305937	     -0.59120810	     54.38283929	    -15.60677071	    -13.38828277	     26.26940377	      0.45848759	     -1.31866088	      0.00000000	      0.00000000	     56.31195779	     -9.47639331	     -2.26428389	     23.78489435	      0.41512472	     -3.93901735	      0.00000000	      0.00000000	    -47.27135613	      1.52222824	      1.86469472	     51.79289195	    -21.78865615	     54.86519287	     24.94077147	     63.65129360	      0.00000000	      0.00000000	     58.14169346	     -4.06511350	     20.17007663	     14.39848557	     32.49466563	      0.00000000	      0.00000000
      7.52000000	     26.76176740	      2.52480009	   -174.17597413	      0.37911701	      0.82318760	     -0.59130422	     54.35166858	    -15.60102864	    -13.70438849	     26.37138144	      0.46026743	     -1.17654697	      0.00000000	      0.00000000	     56.32375486	     -9.50878063	     -2.10522815	     23.85619390	      0.41636913	     -3.77308000	      0.00000000	      0.00000000	    -46.95490841	      1.58104329	      1.84657124	     51.32288966	    -21.78319201	     54.31329301	     25.32616537	     63.18110682	      0.00000000	      0.00000000	     57.61197978	     -4.30290908	     20.09644794	     14.94844060	     32.80599677	      0.00000000	      0.00000000
      7.52500000	     26.56314257	      2.55623580	   -174.37151253	      0.37884321	      0.82386390	     -0.59183742	     54.01819552	    -15.31181064	    -13.54413294	     26.06745434	      0.45496291	     -1.41412607	      0.00000000	      0.00000000	     56.04000829	     -9.72929048	     -2.16272670	     23.76229229	      0.41473024	     -3.94855419	      0.00000000	      0.00000000	    -46.86186359	      1.44919380	      2.03242393	     51.18849810	    -21.68645097	     54.41176566	     24.93617280	     63.26864006	      0.00000000	      0.00000000	     57.66234636	     -4.17673816	     20.27493978	     14.41361601	     32.83858189	      0.00000000	      0.00000000
      7.53000000	     26.46848923	      2.51657562	   -174.34659475	      0.37873114	      0.82398018	     -0.59190673	     53.95822305	    -15.39118687	    -13.63247170	     26.21579628	      0.45755196	     -1.26370636	      0.00000000	      0.00000000	     56.04639331	     -9.66582278	     -2.02962798	     24.03273031	      0.41945027	     -3.79065803	      0.00000000	      0.00000000	    -46.61685471	      1.41722868	      1.96442953	     50.79255212	    -21.74926674	     54.00962714	     25.35499674	     62.95299281	      0.00000000	      0.00000000	     57.20608311	     -4.32292760	     20.15552292	     14.85377416	     33.05095992	      0.00000000	      0.00000000
      7.53500000	     26.46409508	      2.67064489	   -174.44458552	      0.37831887	      0.82416468	     -0.59206623	     53.93773632	    -15.24940605	    -14.01820430	     26.25074995	      0.45816202	     -1.19830707	      0.00000000	      0.00000000	     56.00596339	     -9.85353711	     -1.96665056	     23.92686415	      0.41760256	     -3.64513922	      0.00000000	      0.00000000	    -46.26384847	      1.48294464	      2.03877684	     50.30127756	    -21.65521631	     53.54897207	     25.57184174	     62.54079451	      0.00000000	      0.00000000	     56.67292662	     -4.51509058	     20.12609626	     15.19223992	     33.32149721	      0.00000000	      0.00000000
      7.54000000	     26.36603401	      2.77041002	   -174.53569077	      0.37799179	      0.82444322	     -0.59223768	     53.79719466	    -15.11591089	    -14.21221875	     26.22842511	      0.45777238	     -1.22920103	      0.00000000	      0.00000000	     55.88631587	     -9.98656947	     -1.80840940	     23.89320166	      0.41701504	     -3.60611105	      0.00000000	      0.00000000	    -46.00178021	      1.50784334	      2.13214373	     49.93590180	    -21.54164039	     53.17475095	     25.58931411	     62.18741148	      0.00000000	      0.00000000	     56.30661649	     -4.62341893	     20.16388030	     15.32713536	     33.54518039	      0.00000000	      0.00000000
      7.54500000	     25.70265462	      2.48340232	   -174.97047238	      0.37725048	      0.82600011	     -0.59319554	     52.98993615	    -14.77148473	    -13.63837037	     25.76231397	      0.44963720	     -1.73927749	      0.00000000	      0.00000000	     54.99911431	    -10.31509041	     -2.56699161	     23.91138029	      0.41733231	     -3.78074833	      0.00000000	      0.00000000	    -46.44274226	      0.93387080	      2.41342694	     49.97468544	    -21.60577481	     53.96807307	     25.17891171	     62.88648877	      0.00000000	      0.00000000	     56.86095203	     -4.23219025	     20.85944951	     14.01451956	     33.49158907	      0.00000000	      0.00000000
      7.55000000	     25.59537031	      2.53914801	   -175.03482126	      0.37704144	      0.82618976	     -0.59326110	     52.87398425	    -14.65448912	    -13.65307726	     25.75295599	      0.44947387	     -1.67311797	      0.00000000	      0.00000000	     54.91880450	    -10.38644306	     -2.39181355	     23.98757563	      0.41866217	     -3.71547574	      0.00000000	      0.00000000	    -46.18816804	      0.94678927	      2.44913782	     49.70151225	    -21.53497387	     53.77108877	     25.14469586	     62.72443476	      0.00000000	      0.00000000	     56.43396487	     -4.41464325	     20.91663804	     14.37089286	     33.71403239	      0.00000000	      0.00000000
